<svg id="Group_87" data-name="Group 87" xmlns="http://www.w3.org/2000/svg" width="97.716" height="96.939" viewBox="0 0 97.716 96.939">
  <ellipse id="download_1_" cx="48.858" cy="48.47" rx="48.858" ry="48.47" fill="#fff"/>
  <g id="angular-icon" transform="translate(11.023 12.391)">
    <path id="Path_739" d="M38.563.341.849,13.614l5.96,49.412L38.6,80.5,70.562,62.788l5.958-49.41Z" transform="translate(-0.849 -0.341)" fill="#b3b3b3"/>
    <path id="Path_740" d="M161.592,26.157,127.31,14.466V86.247l28.73-15.9,5.552-44.19Z" transform="translate(-89.684 -10.263)" fill="#a6120d"/>
    <path id="Path_741" d="M15.073,26.364,20.18,70.555,48.467,86.244V14.462l-33.393,11.9Z" transform="translate(-10.841 -10.261)" fill="#dd1b16"/>
    <path id="Path_742" d="M81.694,58.833l-9.437,4.413H62.311L57.635,74.941l-8.7.161L72.257,23.227l9.437,35.606Zm-.912-2.222L72.32,39.859,65.379,56.323h6.878l8.525.289Z" transform="translate(-34.631 -16.418)" fill="#f2f2f2"/>
    <path id="Path_743" d="M127.309,23.226l.062,16.633,7.876,16.477h-7.92l-.018,6.9,10.952.01L143.38,75.1l8.321.154L127.309,23.226Z" transform="translate(-89.683 -16.417)" fill="#b3b3b3"/>
  </g>
</svg>
