<svg xmlns="http://www.w3.org/2000/svg" width="97.716" height="96.939" viewBox="0 0 97.716 96.939">
  <g id="Group_97" transform="translate(-13598 -10862)">
    <ellipse id="download_1_" cx="48.858" cy="48.47" rx="48.858" ry="48.47" transform="translate(13598 10862)" fill="#fff"/>
    <g id="c-sharp-c-seeklogo.com" transform="translate(13613 10872)">
      <path id="Path_776" d="M68.129,22.513a6.762,6.762,0,0,0-.833-3.4,6.5,6.5,0,0,0-2.465-2.4Q51.226,8.865,37.615,1.031a6.682,6.682,0,0,0-7.241.072C26.763,3.232,8.688,13.587,3.3,16.707a6.291,6.291,0,0,0-3.3,5.8Q0,38.287,0,54.064A6.786,6.786,0,0,0,.8,57.4a6.482,6.482,0,0,0,2.5,2.467c5.386,3.12,23.464,13.475,27.074,15.6a6.682,6.682,0,0,0,7.243.072q13.6-7.853,27.219-15.679a6.485,6.485,0,0,0,2.5-2.466,6.8,6.8,0,0,0,.8-3.337s0-21.03,0-31.548" fill="#a179dc"/>
      <path id="Path_777" d="M36.362,143.241,2.988,162.457a6.483,6.483,0,0,0,2.5,2.467c5.386,3.12,23.464,13.475,27.074,15.6a6.682,6.682,0,0,0,7.243.072q13.6-7.853,27.219-15.679a6.485,6.485,0,0,0,2.5-2.466L36.362,143.241" transform="translate(-2.191 -105.056)" fill="#280068"/>
      <path id="Path_778" d="M162.141,75.093a6.761,6.761,0,0,0-.833-3.4L128.182,90.765l33.166,19.213a6.8,6.8,0,0,0,.8-3.337s0-21.03,0-31.548" transform="translate(-94.011 -52.58)" fill="#390091"/>
      <path id="Path_779" d="M187.07,116.294v3.592h3.592v-3.592h1.8v3.592h3.592v1.8h-3.592v3.592h3.592v1.8h-3.592v3.592h-1.8v-3.592H187.07v3.592h-1.8v-3.592h-3.592v-1.8h3.592v-3.592h-3.592v-1.8h3.592v-3.592Zm3.592,5.388H187.07v3.592h3.592Z" transform="translate(-133.249 -85.292)" fill="#fff"/>
      <path id="Path_780" d="M58.781,48.626A25.316,25.316,0,0,1,80.711,61.277l-.043-.073L69.645,67.551a12.6,12.6,0,0,0-10.72-6.21h-.144A12.611,12.611,0,1,0,69.77,80.134l-.053.092L80.724,86.6a25.317,25.317,0,0,1-21.66,12.672l-.282,0a25.325,25.325,0,1,1,0-50.65Z" transform="translate(-24.537 -35.663)" fill="#fff"/>
    </g>
  </g>
</svg>
