<svg xmlns="http://www.w3.org/2000/svg" width="97.716" height="96.939" viewBox="0 0 97.716 96.939">
  <g id="Group_99" transform="translate(-13407 -11131)">
    <ellipse id="download_1_" cx="48.858" cy="48.47" rx="48.858" ry="48.47" transform="translate(13407 11131)" fill="#fff"/>
    <g id="Group_98" transform="translate(154.992 -86.474)">
      <path id="Path_784" d="M131.953,119.474l-4.867,56.439a42.637,42.637,0,0,1-52.211,0l-4.867-56.439Z" transform="translate(13200 11119)" fill="#006bc0"/>
      <path id="Path_785" d="M256,151.338v58.943l20.361-5.748,4.542-53.195Z" transform="translate(13044.983 11092.442)" fill="#0096dc"/>
      <path id="Path_786" d="M177.318,211.406H162.633l15.345-7.81.663-7.851H140.013l.676,8H156.2l-14.878,7.439.692,8.2h26.54l-.87,9.766-8.352,2.262-8.7-2.436-.217-6.09h-8.1l1.014,12.006,16.008,4.524,16.008-4.524,1.984-23.491Z" transform="translate(13141.652 11055.429)" fill="#fff"/>
    </g>
  </g>
</svg>
