<svg xmlns="http://www.w3.org/2000/svg" width="97.716" height="96.94" viewBox="0 0 97.716 96.94">
  <g id="Group_100" transform="translate(-1088.985 -631.53)">
    <ellipse id="download" cx="48.858" cy="48.47" rx="48.858" ry="48.47" transform="translate(1088.985 631.53)" fill="#092e20"/>
    <path id="Path_781" d="M1161.415,666.218V693.2c0,9.3-.68,13.758-2.721,17.613-1.89,3.7-4.384,6.047-9.524,8.618l-10.81-5.141c5.14-2.418,7.635-4.534,9.222-7.786,1.663-3.326,2.193-7.181,2.193-17.31v-22.98ZM1142.9,648.24v53.884a76.854,76.854,0,0,1-15.117,1.589c-14.212,0-21.62-6.425-21.62-18.747,0-11.868,7.862-19.578,20.032-19.578a18.611,18.611,0,0,1,5.065.6V648.24Zm-15.571,26.519c-5.9,0-9.3,3.626-9.3,9.978,0,6.2,3.251,9.6,9.223,9.6a26.991,26.991,0,0,0,4.006-.3V675.363A11.559,11.559,0,0,0,1127.325,674.759Zm34.09-26.457v11.943h-11.64V648.3Z" fill="#fffffd"/>
  </g>
</svg>
