<svg id="Group_86" data-name="Group 86" xmlns="http://www.w3.org/2000/svg" width="97.716" height="96.939" viewBox="0 0 97.716 96.939">
  <ellipse id="download_1_" cx="48.858" cy="48.47" rx="48.858" ry="48.47" fill="#fff"/>
  <g id="go-logo-1" transform="translate(20.333 8.559)">
    <path id="Path_744" d="M1.815,174.618c.111,2.3,2.408,1.226,3.433.513.981-.691,1.271-.111,1.36-1.449a21.124,21.124,0,0,0,.111-2.653,6.474,6.474,0,0,0-4.325,1.115c-.646.446-1.806,1.918-.58,2.475m45.772,28.226c1.761,1.092,4.994,4.392,2.341,6-2.542,2.319-3.968-2.564-6.2-3.233A6.025,6.025,0,0,1,47.587,202.843Zm-31.525,3.723c-2.073.312-3.233,2.185-4.972,3.144-1.628.959-2.252-.312-2.386-.58-.245-.111-.223.111-.624-.29-1.516-2.386,1.561-4.125,3.166-5.306C13.476,203.089,14.88,205.028,16.062,206.567Zm41.313-32.239c-.111,2.3-2.408,1.226-3.433.513-.981-.691-1.271-.111-1.36-1.449a21.04,21.04,0,0,1-.111-2.653,6.473,6.473,0,0,1,4.325,1.115c.624.446,1.806,1.917.58,2.475" transform="translate(-1.082 -132.547)" fill="#f6d2a2"/>
    <path id="Path_745" d="M56.829,14.9c7.959-2.809,1.739-13.711-5.195-8.9-4.548-3.9-10.813-4.615-17.39-4.615C27.8,1.907,21.67,3.089,17.389,6.834c-6.912-4.459-13.288,6.242-5.173,8.94C9.942,24.6,12.528,33.61,12.172,42.6c-.334,8.071-2.452,18.884,2.029,26.13,3.813,6.2,12.017,8.405,18.773,8.651,8.628.312,19.084-1.806,23.276-10.167,4.013-7.959,2.9-17.881,2.386-26.464-.513-8.673.446-17.479-1.806-25.84Z" transform="translate(-6.623 -1.127)" fill="#69d7e2"/>
    <path id="Path_746" d="M57.3,40.621a3.727,3.727,0,0,0-1.048-1.293,6.759,6.759,0,0,0-3.7-1.182c-.045-1.382-.089-2.9-.089-4.816V31.591a101.369,101.369,0,0,0-.4-10.9,44.137,44.137,0,0,0-1.159-6.6,5.372,5.372,0,0,0,3.456-3.3,5.361,5.361,0,0,0-.535-4.258A5.609,5.609,0,0,0,45.465,4.77,17.006,17.006,0,0,0,40.47,1.894C37.148.668,33.291.2,28.052.2V.423L28.03.2c-5.6.446-9.743,1.315-13.176,2.988A16.381,16.381,0,0,0,11.175,5.6a5.9,5.9,0,0,0-4.95-.78,6.082,6.082,0,0,0-3.5,2.854A5.069,5.069,0,0,0,2.3,11.927a5.469,5.469,0,0,0,3.456,3.032,32.268,32.268,0,0,0-.892,7.268,81.608,81.608,0,0,0,.468,9.252c.29,3.456.4,5.039.446,6.956A6.674,6.674,0,0,0,1.61,39.6,3.323,3.323,0,0,0,.562,40.889a1.067,1.067,0,0,0,.4,1.516c.089,1.07.691,1.56,1.605,1.471a4.873,4.873,0,0,0,2.163-.914,2.509,2.509,0,0,1,.468-.267c.067-.022.111-.045.178-.067,0,0,.134-.044.178-.067a.45.45,0,0,0,.178-.089c-.045,1.048-.134,2.14-.334,4.638-.223,2.809-.334,4.348-.379,6.064-.2,6.376.557,11.014,2.831,14.692a14.5,14.5,0,0,0,2.609,3.121c-.2.134-1.048.758-1.315.959A7.092,7.092,0,0,0,7.184,73.93a2.44,2.44,0,0,0,.067,2.653l.022.022.022.022c.245.245.379.312.557.312h.066c.022.045.045.067.067.111a3.238,3.238,0,0,0,.2.29,1.691,1.691,0,0,0,2.386.178,9.808,9.808,0,0,0,1.806-1.338l.045-.045c1.36-1.159,2.029-1.583,3.032-1.739l.357-.067c.134.067.267.112.423.178a31.831,31.831,0,0,0,10.568,2.1A35.775,35.775,0,0,0,40.18,74.755a23.875,23.875,0,0,0,2.965-1.315,5.583,5.583,0,0,1,2.007,1.784.235.235,0,0,1,.067.089c.045.045.045.067.067.089.044.067.111.111.156.178a5.112,5.112,0,0,0,1.784,1.538,1.929,1.929,0,0,0,2.185-.513c1.293-.8,1.382-2.051.535-3.478a9.545,9.545,0,0,0-2.631-2.72,15.413,15.413,0,0,0,2.943-4.035c2.14-4.281,2.965-9.275,2.921-15.7-.022-2.274-.112-4.258-.357-8.049v-.111a1.331,1.331,0,0,1,.334.2,5.143,5.143,0,0,0,2.163.914c.914.089,1.516-.4,1.605-1.471a1.109,1.109,0,0,0,.379-1.538ZM50.214,4.257A5.346,5.346,0,0,1,53.424,6.8a4.874,4.874,0,0,1,.513,3.9,4.877,4.877,0,0,1-3.166,2.988,36.267,36.267,0,0,0-1.182-3.523,1.637,1.637,0,0,0,.446-2.229,1.756,1.756,0,0,0-2.319-.8,16.661,16.661,0,0,0-1.895-2.051,5.426,5.426,0,0,1,4.392-.825ZM2.68,11.793a4.545,4.545,0,0,1,.4-3.879A5.611,5.611,0,0,1,6.337,5.283a5.544,5.544,0,0,1,4.481.669A14.67,14.67,0,0,0,8.5,8.605c-1.159-.6-2.341-.714-3.01.513-.691,1.316.111,2.14,1.248,2.765-.156.379-.312.78-.446,1.182-.156.49-.312,1-.446,1.516A5.128,5.128,0,0,1,2.68,11.793Zm2.7,30.388c-.022,0-.156.045-.156.067a.8.8,0,0,0-.2.089,2.222,2.222,0,0,0-.535.312,4.327,4.327,0,0,1-1.962.825c-.669.067-1.048-.223-1.115-1.026a1.366,1.366,0,0,0,.847-.535L1.9,41.646c-.134.178-.267.245-.669.379-.022,0-.022,0-.045.022-.357-.2-.423-.513-.223-.959a3.194,3.194,0,0,1,.914-1.115A6.084,6.084,0,0,1,5.8,38.9c0,.557.022,1.115,0,1.65a.49.49,0,0,1-.022.179c-.022.312-.022.446-.045.6-.067.646-.111.735-.357.847Zm6.733,33.643-.045.045a9.91,9.91,0,0,1-1.739,1.293c-.847.513-1.427.4-1.828-.089a1.358,1.358,0,0,1-.156-.223c-.022-.022-.045-.067-.067-.089v-.022a2.961,2.961,0,0,1,.6-1.315c.022-.022.022-.022.022-.045a4.781,4.781,0,0,0,.468-.8l-.4-.178a6.059,6.059,0,0,1-.424.736c-.022.022-.022.022-.022.045a3.7,3.7,0,0,0-.669,1.338H7.763a.809.809,0,0,1-.2-.156c-.87-1.382-.178-2.564,1.783-4.035.245-.178,1.07-.758,1.293-.936a.316.316,0,0,0,.134-.045A18.726,18.726,0,0,0,14.942,74c0,.022.022.045.045.067a6.844,6.844,0,0,0-2.876,1.761Zm37.434-2.43c.691,1.159.669,2.1-.2,2.742-.067-.134-.111-.29-.2-.513,0-.022,0-.022-.022-.045a4.05,4.05,0,0,0-.892-1.605l-.312.312a3.52,3.52,0,0,1,.8,1.427c0,.022,0,.022.022.045.111.29.178.468.245.624a1.419,1.419,0,0,1-1.628.334,5.214,5.214,0,0,1-1.628-1.427,1.245,1.245,0,0,1-.134-.178.311.311,0,0,1-.067-.089.237.237,0,0,1-.067-.089,7.411,7.411,0,0,0-1.851-1.761,17.857,17.857,0,0,0,3.367-2.452,10.423,10.423,0,0,1,2.564,2.676Zm.312-7.224C47.94,70.028,44.551,72.748,40,74.4A35.469,35.469,0,0,1,26.781,76.2c-8.182-.29-15.272-3.144-18.594-8.539-2.23-3.59-2.965-8.16-2.765-14.447.067-1.717.156-3.255.379-6.064.245-3.166.312-4.08.379-5.507.045-1.026.045-2.073.022-3.188-.045-1.962-.156-3.523-.446-7.023a81.213,81.213,0,0,1-.468-9.208,29.884,29.884,0,0,1,1.449-9.074,15.733,15.733,0,0,1,8.316-9.565c3.367-1.65,7.447-2.5,13-2.943,5.195,0,8.985.468,12.262,1.672a15.67,15.67,0,0,1,8.851,7.893,37.379,37.379,0,0,1,2.453,10.5,100.416,100.416,0,0,1,.4,10.858v1.739c.022,2.7.067,4.593.178,6.488.045.736.067,1.048.178,2.809.245,3.79.335,5.752.357,8.026.045,6.4-.758,11.326-2.876,15.54Zm6.822-24.413c-.022,0-.045-.022-.067-.022a1.273,1.273,0,0,1-.669-.379l-.357.267a1.509,1.509,0,0,0,.847.535c-.089.8-.468,1.093-1.115,1.026a4.591,4.591,0,0,1-1.962-.825,3.327,3.327,0,0,0-.535-.312c-.022,0-.045-.022-.067-.022-.089-1.226-.089-1.538-.134-2.185l-.067-1.2a5.975,5.975,0,0,1,3.411,1.092,3.2,3.2,0,0,1,.914,1.115.583.583,0,0,1-.2.914Z" transform="translate(-0.408 -0.2)"/>
    <path id="Path_747" d="M116.534,101.294a19.218,19.218,0,0,1,.045,3.589c-.312.58-.892.647-1.4.87a2.1,2.1,0,0,1-1.605-1.248,21.956,21.956,0,0,1,.111-4.013,5.114,5.114,0,0,1,1.605.245A5.389,5.389,0,0,1,116.534,101.294Zm-6.31.089c-.624,2.364.825,6.22,3.211,3.055a21.2,21.2,0,0,1,.089-3.946A15.832,15.832,0,0,0,110.225,101.383Z" transform="translate(-85.532 -78.034)" fill="#fff"/>
    <path id="Path_748" d="M115.934,100.145c-.045-.669-.067-.936-.067-1.271v-.156l-.156-.045L112.9,97.8v-.156l-.29.067h-.022v.022l-3.166.8-.111.022-.045.111a5.137,5.137,0,0,0,.245,4.058c.714,1.248,1.873,1.271,3.055-.156a2.281,2.281,0,0,0,1.672,1.2h.067l.067-.022c.089-.045.178-.067.335-.134.022,0,.022,0,.045-.022a1.656,1.656,0,0,0,1.137-.825l.022-.022v-.045a7.875,7.875,0,0,0,.089-1.293C116,101.081,115.979,100.769,115.934,100.145Zm-3.567-.825c-.022.4-.045.557-.067.78a12.523,12.523,0,0,0,.022,2.074c-1.048,1.338-1.873,1.338-2.43.334a4.7,4.7,0,0,1-.245-3.567l2.809-.714C112.434,98.518,112.412,98.807,112.367,99.32Zm3.121,3.3c-.156.267-.357.4-.892.58-.022,0-.022,0-.045.022-.134.045-.223.089-.29.111a1.855,1.855,0,0,1-1.36-1.07,12.256,12.256,0,0,1-.022-2.051c.022-.223.022-.379.067-.78.044-.513.067-.825.067-1.115l2.43.736c0,.29.022.557.067,1.137.045.6.067.914.067,1.271A6.3,6.3,0,0,1,115.488,102.62Z" transform="translate(-84.665 -75.837)"/>
    <g id="Group_79" transform="translate(10.901 4.938)">
      <path id="Path_749" d="M1.7,9.673C3.754,17.654,16.529,15.6,16.039,7.6,15.459-1.988-.259-.137,1.7,9.673" transform="translate(-1.333 -1.064)" fill="#fff"/>
      <path id="Path_750" d="M15.565,6.8a6.527,6.527,0,0,0-2.854-5.262A8.135,8.135,0,0,0,7.2.355,7.99,7.99,0,0,0,2.188,2.919,6.813,6.813,0,0,0,.806,8.894l.2-.045-.2.045C2.9,17.1,16.056,15.114,15.565,6.8ZM1.207,8.85A6.379,6.379,0,0,1,2.5,3.231,7.547,7.547,0,0,1,7.249.8a7.554,7.554,0,0,1,5.217,1.115,6.144,6.144,0,0,1,2.675,4.95c.468,7.781-11.95,9.654-13.934,1.984Z" transform="translate(-0.636 -0.285)"/>
      <ellipse id="Ellipse_54" cx="2.163" cy="2.341" rx="2.163" ry="2.341" transform="translate(1.731 4.953)"/>
      <ellipse id="Ellipse_55" cx="0.513" cy="0.602" rx="0.513" ry="0.602" transform="translate(4.361 7.227)" fill="#fff"/>
    </g>
    <g id="Group_80" transform="translate(28.949 4.178)">
      <path id="Path_751" d="M1.139,9.358c1.583,9.163,16.565,6.733,14.4-2.5C13.6-1.432.6.864,1.139,9.358" transform="translate(-0.901 -1.482)" fill="#fff"/>
      <path id="Path_752" d="M14.972,6.1C12.988-2.435-.389-.094.146,8.668V8.69C.881,13.015,4.739,15.223,9,14.509a7.96,7.96,0,0,0,4.816-2.653A6.434,6.434,0,0,0,14.972,6.1Zm-1.494,5.485a7.489,7.489,0,0,1-4.548,2.5c-4.036.669-7.647-1.4-8.361-5.462C.079.374,12.7-1.833,14.571,6.193A6.009,6.009,0,0,1,13.478,11.589Z" transform="translate(-0.13 -0.769)"/>
      <ellipse id="Ellipse_56" cx="2.118" cy="2.341" rx="2.118" ry="2.341" transform="translate(1.799 5.134)"/>
      <ellipse id="Ellipse_57" cx="0.49" cy="0.602" rx="0.49" ry="0.602" transform="translate(4.408 7.408)" fill="#fff"/>
    </g>
    <path id="Path_753" d="M103.911,82.151c-1.761.156-3.188,2.23-2.274,3.879,1.2,2.185,3.9-.2,5.574.022,1.94.045,3.523,2.051,5.061.357,1.717-1.873-.736-3.7-2.676-4.5Z" transform="translate(-78.758 -63.618)" fill="#f6d2a2"/>
    <path id="Path_754" d="M111.8,82.949a7.113,7.113,0,0,0-2.787-1.917l-.045-.022h-.045l-5.707.223a3,3,0,0,0-2.453,4.214,1.862,1.862,0,0,0,1.583,1.048,4.929,4.929,0,0,0,1.873-.379c.067-.022.156-.045.267-.089A4.417,4.417,0,0,1,106.5,85.6h.022a4.864,4.864,0,0,1,1.828.49,5.632,5.632,0,0,0,1.694.535,2.028,2.028,0,0,0,1.717-.735A2.06,2.06,0,0,0,111.8,82.949Zm-.379,2.631a1.607,1.607,0,0,1-1.36.6,4.876,4.876,0,0,1-1.561-.491,5.2,5.2,0,0,0-1.962-.535,4.83,4.83,0,0,0-2.207.446c-.111.045-.2.067-.267.089-1.628.557-2.408.513-2.943-.468a2.568,2.568,0,0,1,2.1-3.567l5.641-.223a6.734,6.734,0,0,1,2.586,1.784,1.606,1.606,0,0,1-.022,2.363Z" transform="translate(-78.067 -62.922)" fill="#231f20"/>
    <path id="Path_755" d="M118.134,72.888c-.691-2.542-6.488-2.163-6.354.87C112.07,76.009,118.8,75.407,118.134,72.888Z" transform="translate(-86.851 -55.313)"/>
  </g>
</svg>
