<svg xmlns="http://www.w3.org/2000/svg" width="97.716" height="96.939" viewBox="0 0 97.716 96.939">
  <g id="Group_103" transform="translate(-13583 -11131)">
    <ellipse id="download_1_" cx="48.858" cy="48.47" rx="48.858" ry="48.47" transform="translate(13583 11131)" fill="#fff"/>
    <g id="Group_102" transform="translate(13457.214 10818.331)">
      <path id="Path_787" d="M174.605,400.891l-25.027-6.948L144,331.387h61.285L199.7,393.933Zm0,0" transform="translate(0 0)" fill="#e44d26"/>
      <path id="Path_788" d="M309.373,409.054l4.772-53.449H289.094v59.071Zm0,0" transform="translate(-114.451 -19.103)" fill="#f16529"/>
      <path id="Path_789" d="M217.238,415.135v-7.672H207.086l-.7-7.857h10.853v-7.672H198l.183,2.058,1.886,21.143Zm0,0" transform="translate(-42.595 -47.76)" fill="#ebebeb"/>
      <path id="Path_790" d="M226.248,528.373l-.034.009-8.544-2.307-.546-6.119h-7.7L210.5,532l15.716,4.363.035-.01Zm0,0" transform="translate(-51.605 -148.745)" fill="#ebebeb"/>
      <path id="Path_791" d="M306.8,465.465H288.969v7.672h9.447l-.891,9.95-8.556,2.31v7.982l15.728-4.359.116-1.3,1.8-20.2Zm0,0" transform="translate(-114.352 -105.762)" fill="#fff"/>
      <path id="Path_792" d="M308.188,391.934H288.969v7.672H307.5l.153-1.724.35-3.89Zm0,0" transform="translate(-114.352 -47.76)" fill="#fff"/>
    </g>
  </g>
</svg>
