<svg id="Group_85" data-name="Group 85" xmlns="http://www.w3.org/2000/svg" width="97.716" height="96.939" viewBox="0 0 97.716 96.939">
  <ellipse id="download" cx="48.858" cy="48.47" rx="48.858" ry="48.47" transform="translate(0 0)" fill="#f0db4f"/>
  <path id="Path_757" d="M725.328,398.89c-.8-5.013-4.074-9.223-13.756-13.151-3.363-1.546-7.113-2.653-8.232-5.2a5.685,5.685,0,0,1-.2-3.218c.721-2.914,4.2-3.823,6.958-2.987a7.655,7.655,0,0,1,4.471,4.147c4.742-3.071,4.732-3.051,8.043-5.16a20.46,20.46,0,0,0-2.653-3.549c-2.852-3.185-6.738-4.826-12.953-4.7-1.076.136-2.162.282-3.238.418a14.685,14.685,0,0,0-7.793,4.6c-5.2,5.9-3.719,16.232,2.611,20.489,6.236,4.68,15.4,5.745,16.566,10.123,1.139,5.358-3.937,7.1-8.983,6.476-3.719-.773-5.786-2.664-8.022-6.1-4.121,2.382-4.121,2.382-8.345,4.816a18.575,18.575,0,0,0,3.739,5.087c7.96,8.074,27.88,7.677,31.452-4.545A15.086,15.086,0,0,0,725.328,398.89Zm-41.155-33.175H673.9c0,8.879-.041,17.695-.041,26.573,0,5.651.293,10.832-.627,12.419-1.505,3.123-5.4,2.737-7.176,2.132a8.829,8.829,0,0,1-3.793-3.938,5.269,5.269,0,0,0-.584-.94q-4.185,2.555-8.357,5.118a16.516,16.516,0,0,0,6.058,6.931,19.954,19.954,0,0,0,14.687,1.808,12.976,12.976,0,0,0,8.294-6.5c2.34-4.314,1.839-9.537,1.818-15.313.048-9.415,0-18.839,0-28.291Z" transform="translate(-640.628 -342.3)" fill="#323330"/>
</svg>
