<svg id="Group_89" data-name="Group 89" xmlns="http://www.w3.org/2000/svg" width="97.716" height="96.939" viewBox="0 0 97.716 96.939">
  <ellipse id="download_1_" cx="48.858" cy="48.47" rx="48.858" ry="48.47" fill="#fff"/>
  <g id="next-js-seeklogo.com" transform="translate(9 24)">
    <path id="Path_758" d="M19.034,12.692H34.248V13.9H20.428V23h13v1.209h-13V34.2H34.407v1.209H19.034Zm16.577,0h1.617l7.163,9.992,7.322-9.992L61.672,0,45.31,23.735l8.431,11.679h-1.68L44.391,24.785l-7.7,10.629H35.041l8.495-11.679ZM54.344,13.9V12.692H71.682V13.9H63.694V35.414H62.3V13.9ZM0,12.692H1.743L25.783,48.665,15.848,35.414l-14.39-21-.063,21H0ZM71.541,33.84a.506.506,0,1,1,.5-.506A.493.493,0,0,1,71.541,33.84Zm1.37-1.331h.746a.682.682,0,0,0,.739.676c.485,0,.76-.292.76-.839V28.881h.76v3.468A1.4,1.4,0,0,1,74.4,33.9,1.367,1.367,0,0,1,72.912,32.508Zm4-.044h.753c.064.465.519.761,1.174.761.611,0,1.058-.316,1.058-.751,0-.374-.285-.6-.933-.751l-.631-.153c-.885-.207-1.289-.635-1.289-1.355,0-.873.712-1.454,1.781-1.454a1.6,1.6,0,0,1,1.764,1.406h-.74a.935.935,0,0,0-1.034-.734c-.6,0-1,.289-1,.73,0,.35.258.55.9.7l.539.132c1,.234,1.418.642,1.418,1.379,0,.937-.726,1.525-1.886,1.525C77.695,33.9,76.965,33.34,76.911,32.464Z" transform="translate(0)"/>
  </g>
</svg>
