<svg xmlns="http://www.w3.org/2000/svg" xmlns:xlink="http://www.w3.org/1999/xlink" width="97.716" height="96.939" viewBox="0 0 97.716 96.939">
  <defs>
    <linearGradient id="linear-gradient" x1="0.681" y1="0.175" x2="0.278" y2="0.897" gradientUnits="objectBoundingBox">
      <stop offset="0" stop-color="#3f873f"/>
      <stop offset="0.33" stop-color="#3e8a3d"/>
      <stop offset="0.637" stop-color="#3e9537"/>
      <stop offset="0.934" stop-color="#3da82d"/>
      <stop offset="1" stop-color="#3dae2b"/>
    </linearGradient>
    <clipPath id="clip-path">
      <path id="Path_811" d="M203.986,226.058a.986.986,0,0,0-.985,0l-8.156,4.706a.985.985,0,0,0-.493.853v9.42a.986.986,0,0,0,.492.853L203,246.6a.985.985,0,0,0,.985,0l8.154-4.71a.986.986,0,0,0,.492-.853v-9.42a.985.985,0,0,0-.493-.853Z" transform="translate(-194.353 -225.926)" fill="url(#linear-gradient)" clip-rule="evenodd"/>
    </clipPath>
    <linearGradient id="linear-gradient-3" x1="0.432" y1="0.552" x2="1.591" y2="-0.183" gradientUnits="objectBoundingBox">
      <stop offset="0.138" stop-color="#3f873f"/>
      <stop offset="0.397" stop-color="#519f44"/>
      <stop offset="0.711" stop-color="#63b649"/>
      <stop offset="0.908" stop-color="#6abf4b"/>
    </linearGradient>
    <linearGradient id="linear-gradient-4" x1="-57.151" y1="0.5" x2="68.852" y2="0.5" gradientUnits="objectBoundingBox">
      <stop offset="0.092" stop-color="#6abf4b"/>
      <stop offset="0.289" stop-color="#63b649"/>
      <stop offset="0.603" stop-color="#519f44"/>
      <stop offset="0.862" stop-color="#3f873f"/>
    </linearGradient>
    <linearGradient id="linear-gradient-5" x1="-0.045" x2="1.016" xlink:href="#linear-gradient-4"/>
    <linearGradient id="linear-gradient-6" x1="-347.794" x2="1" xlink:href="#linear-gradient-4"/>
    <linearGradient id="linear-gradient-7" x1="-1.037" x2="1.006" xlink:href="#linear-gradient-4"/>
    <linearGradient id="linear-gradient-8" x1="1.303" y1="-2.11" x2="0.044" y2="2.012" xlink:href="#linear-gradient"/>
  </defs>
  <g id="Group_112" transform="translate(-12694 -11359)">
    <ellipse id="download_1_" cx="48.858" cy="48.47" rx="48.858" ry="48.47" transform="translate(12694 11359)" fill="#fff"/>
    <g id="Group_111" transform="translate(12621.694 11216.982)">
      <g id="Group_104" transform="translate(111.274 195.358)">
        <path id="Path_793" d="M257.979,347.03a1.621,1.621,0,0,1-.811-.217l-2.582-1.528c-.385-.216-.2-.292-.07-.336a5.14,5.14,0,0,0,1.167-.531.2.2,0,0,1,.192.015l1.983,1.178a.255.255,0,0,0,.239,0l7.733-4.463a.244.244,0,0,0,.118-.209v-8.924a.249.249,0,0,0-.12-.213l-7.73-4.46a.243.243,0,0,0-.238,0l-7.728,4.461a.249.249,0,0,0-.123.212v8.924a.237.237,0,0,0,.122.207l2.118,1.224c1.149.575,1.853-.1,1.853-.782v-8.811a.223.223,0,0,1,.225-.223h.981a.223.223,0,0,1,.224.223v8.811a2.143,2.143,0,0,1-2.29,2.414,3.308,3.308,0,0,1-1.781-.484l-2.028-1.167a1.633,1.633,0,0,1-.811-1.411v-8.924a1.629,1.629,0,0,1,.811-1.409l7.733-4.469a1.7,1.7,0,0,1,1.625,0l7.732,4.469a1.632,1.632,0,0,1,.812,1.409v8.924a1.636,1.636,0,0,1-.812,1.411l-7.732,4.465A1.622,1.622,0,0,1,257.979,347.03Z" transform="translate(-248.624 -325.929)" fill="#679e63"/>
        <path id="Path_794" d="M292.242,367.49c-3.384,0-4.093-1.553-4.093-2.856a.222.222,0,0,1,.224-.223h1a.224.224,0,0,1,.222.19c.151,1.018.6,1.531,2.647,1.531,1.629,0,2.323-.369,2.323-1.233,0-.5-.2-.868-2.728-1.116-2.116-.209-3.424-.677-3.424-2.369,0-1.56,1.315-2.491,3.52-2.491,2.477,0,3.7.86,3.859,2.7a.224.224,0,0,1-.223.243h-1a.223.223,0,0,1-.217-.175c-.241-1.071-.826-1.413-2.415-1.413-1.778,0-1.985.62-1.985,1.084,0,.563.244.726,2.646,1.044,2.376.314,3.505.759,3.505,2.429S294.692,367.49,292.242,367.49Z" transform="translate(-280.498 -352.536)" fill="#679e63"/>
      </g>
      <g id="Group_105" transform="translate(131.187 199.462)">
        <path id="Path_795" d="M354.481,348.621a1.49,1.49,0,1,1-1.49-1.491A1.494,1.494,0,0,1,354.481,348.621Zm-2.74,0a1.25,1.25,0,1,0,1.246-1.246A1.25,1.25,0,0,0,351.741,348.616Zm.69-.832h.576c.2,0,.584,0,.584.442a.384.384,0,0,1-.316.41c.229.016.245.166.276.378a1.646,1.646,0,0,0,.087.441h-.354c-.008-.079-.064-.5-.064-.528-.023-.095-.055-.142-.173-.142h-.292v.67h-.324Zm.316.733h.26a.225.225,0,0,0,.252-.236c0-.229-.158-.229-.245-.229h-.268Z" transform="translate(-351.5 -347.13)" fill="#679e63"/>
      </g>
      <path id="Path_796" d="M96.683,230.782a.989.989,0,0,0-.5-.86l-8.2-4.718a.963.963,0,0,0-.451-.13h-.085a.977.977,0,0,0-.453.13l-8.2,4.718a.993.993,0,0,0-.5.86l.018,12.7a.487.487,0,0,0,.247.428.476.476,0,0,0,.492,0l4.872-2.79a1,1,0,0,0,.5-.859V234.33a.987.987,0,0,1,.495-.857L87,232.278a.985.985,0,0,1,.5-.133.97.97,0,0,1,.492.133l2.074,1.195a.987.987,0,0,1,.5.857v5.936a1,1,0,0,0,.5.859l4.871,2.79a.482.482,0,0,0,.495,0,.5.5,0,0,0,.246-.428Z" transform="translate(0 -49.237)" fill="#333" fill-rule="evenodd"/>
      <path id="Path_797" d="M322.9,164.08a.5.5,0,0,0-.737.432v12.582a.346.346,0,0,1-.52.3l-2.053-1.183a.991.991,0,0,0-.99,0l-8.2,4.733a.99.99,0,0,0-.5.858v9.468a.991.991,0,0,0,.5.858l8.2,4.737a.99.99,0,0,0,.991,0l8.2-4.737a.991.991,0,0,0,.5-.858v-23.6a.991.991,0,0,0-.508-.865Zm-.761,24.08a.247.247,0,0,1-.124.214L319.194,190a.247.247,0,0,1-.247,0l-2.816-1.623a.247.247,0,0,1-.124-.214v-3.252a.248.248,0,0,1,.124-.215l2.816-1.626a.247.247,0,0,1,.248,0l2.816,1.626a.249.249,0,0,1,.123.215Z" transform="translate(-186.764 0)" fill="#333" fill-rule="evenodd"/>
      <g id="Group_106" transform="translate(145.606 175.951)">
        <path id="Path_798" d="M443.825,234.539a.99.99,0,0,0,.493-.856v-2.295a.99.99,0,0,0-.493-.857l-8.149-4.731a.99.99,0,0,0-.992,0l-8.2,4.733a.99.99,0,0,0-.5.858v9.466a.99.99,0,0,0,.5.861l8.148,4.643a.99.99,0,0,0,.971.005l4.928-2.739a.5.5,0,0,0,.006-.862l-8.251-4.736a.5.5,0,0,1-.249-.43v-2.967a.5.5,0,0,1,.248-.429l2.568-1.48a.5.5,0,0,1,.494,0l2.569,1.48a.5.5,0,0,1,.248.429v2.334a.5.5,0,0,0,.744.428Z" transform="translate(-425.989 -225.667)" fill="#333" fill-rule="evenodd"/>
        <path id="Path_799" d="M465.895,269.108a.19.19,0,0,1,.19,0l1.574.908a.19.19,0,0,1,.095.165V272a.191.191,0,0,1-.095.165l-1.574.908a.19.19,0,0,1-.19,0l-1.573-.908a.191.191,0,0,1-.1-.165V270.18a.19.19,0,0,1,.1-.165Z" transform="translate(-456.825 -260.678)" fill="#679e63" fill-rule="evenodd"/>
      </g>
      <g id="Group_110" transform="translate(100.769 176.001)">
        <path id="Path_800" d="M203.986,226.058a.986.986,0,0,0-.985,0l-8.156,4.706a.985.985,0,0,0-.493.853v9.42a.986.986,0,0,0,.492.853L203,246.6a.985.985,0,0,0,.985,0l8.154-4.71a.986.986,0,0,0,.492-.853v-9.42a.985.985,0,0,0-.493-.853Z" transform="translate(-194.353 -225.926)" fill-rule="evenodd" fill="url(#linear-gradient)"/>
        <g id="Group_109" transform="translate(0 0)" clip-path="url(#clip-path)">
          <g id="Group_107" transform="translate(-0.068 0.001)">
            <path id="Path_801" d="M202.7,226.06l-8.173,4.706a1.018,1.018,0,0,0-.527.853v9.42a.953.953,0,0,0,.254.627l9.183-15.708A1,1,0,0,0,202.7,226.06Z" transform="translate(-194 -225.929)" fill="none"/>
            <path id="Path_802" d="M242.988,267.556a.971.971,0,0,0,.23-.1l8.164-4.71a1.006,1.006,0,0,0,.513-.853v-9.42a.973.973,0,0,0-.3-.684Z" transform="translate(-233.506 -246.787)" fill="none"/>
            <path id="Path_803" d="M212.93,230.889l-8.179-4.706a.981.981,0,0,0-.256-.1l-9.183,15.708a1.124,1.124,0,0,0,.275.226l8.192,4.71a1,1,0,0,0,.761.1l8.608-15.763A1.077,1.077,0,0,0,212.93,230.889Z" transform="translate(-195.059 -226.052)" fill="url(#linear-gradient-3)"/>
          </g>
          <g id="Group_108" transform="translate(-0.068 -1.598)">
            <path id="Path_804" d="M251.521,241.126v-9.42a1.009,1.009,0,0,0-.517-.853l-8.179-4.706a.985.985,0,0,0-.3-.111l8.965,15.316A.9.9,0,0,0,251.521,241.126Z" transform="translate(-233.132 -224.416)" fill="none"/>
            <path id="Path_805" d="M194.527,250.8a1.018,1.018,0,0,0-.527.853v9.42a1.022,1.022,0,0,0,.529.853l8.192,4.71a.993.993,0,0,0,.63.123l-8.776-15.987Z" transform="translate(-194 -244.367)" fill="none"/>
            <path id="Path_806" d="M237.16,217.669l-.112.064h.15Z" transform="translate(-228.715 -217.669)" fill="url(#linear-gradient-4)"/>
            <path id="Path_807" d="M214.276,241.9a1.031,1.031,0,0,0,.482-.627l-8.965-15.316a1,1,0,0,0-.693.111l-8.124,4.678,8.776,15.987a.984.984,0,0,0,.36-.123Z" transform="translate(-196.4 -224.334)" fill="url(#linear-gradient-5)"/>
            <path id="Path_808" d="M290.054,307.235l-.054-.092v.124Z" transform="translate(-271.418 -289.824)" fill="url(#linear-gradient-6)"/>
            <path id="Path_809" d="M250.837,305.791l-8.164,4.71a.984.984,0,0,1-.36.122l.163.3,9.068-5.249v-.124l-.224-.383A1.031,1.031,0,0,1,250.837,305.791Z" transform="translate(-232.961 -288.228)" fill="url(#linear-gradient-7)"/>
            <path id="Path_810" d="M250.837,305.791l-8.164,4.71a.984.984,0,0,1-.36.122l.163.3,9.068-5.249v-.124l-.224-.383A1.031,1.031,0,0,1,250.837,305.791Z" transform="translate(-232.961 -288.228)" fill="url(#linear-gradient-8)"/>
          </g>
        </g>
      </g>
    </g>
  </g>
</svg>
