<svg id="Group_95" data-name="Group 95" xmlns="http://www.w3.org/2000/svg" width="97.716" height="96.939" viewBox="0 0 97.716 96.939">
  <ellipse id="download_1_" data-name="download (1)" cx="48.858" cy="48.47" rx="48.858" ry="48.47" fill="#fff"/>
  <g id="postgresql-icon" transform="translate(13.425 19.109)">
    <path id="Path_759" data-name="Path 759" d="M54.276,54.1c.492-4.1.344-4.7,3.394-4.034l.776.069a17.916,17.916,0,0,0,7.247-1.214c3.88-1.8,6.181-4.807,2.355-4.016-8.726,1.8-9.36-1.156-9.36-1.156,9.218-13.678,13.074-31.04,9.744-35.288C59.36-3.133,43.656,2.35,43.394,2.5l-.085.015a30.07,30.07,0,0,0-5.828-.6,14.422,14.422,0,0,0-9.221,2.76S.249-6.874,1.55,19.181c.278,5.544,7.941,41.97,17.09,30.949C21.989,46.1,25.22,42.7,25.22,42.7a8.463,8.463,0,0,0,5.538,1.413l.157-.133a6.069,6.069,0,0,0,.063,1.564c-2.355,2.633-1.661,3.095-6.371,4.064-4.765.981-1.963,2.73-.139,3.189,2.216.556,7.343,1.341,10.81-3.509l-.139.553c.924.74.861,5.314,1,8.581s.35,6.32,1.018,8.116,1.449,6.431,7.639,5.133c5.172-1.108,9.128-2.705,9.49-17.543" transform="translate(-1.455 -0.969)" stroke="#000" stroke-width="2.149"/>
    <path id="Path_760" data-name="Path 760" d="M68.034,44.915c-8.726,1.8-9.36-1.156-9.36-1.156C67.893,30.08,71.748,12.718,68.421,8.47,59.351-3.125,43.646,2.362,43.384,2.5l-.085.015a31.131,31.131,0,0,0-5.824-.607,14.422,14.422,0,0,0-9.221,2.76S.239-6.869,1.544,19.186c.278,5.544,7.941,41.97,17.09,30.949,3.37-4.052,6.6-7.455,6.6-7.455a8.463,8.463,0,0,0,5.538,1.413l.157-.133a6.1,6.1,0,0,0,.063,1.564c-2.355,2.633-1.661,3.095-6.371,4.064-4.765.981-1.963,2.73-.139,3.189,2.216.556,7.343,1.341,10.81-3.509l-.139.553c.924.74,1.57,4.81,1.461,8.5s-.181,6.22.544,8.2,1.449,6.431,7.639,5.133c5.172-1.108,7.851-3.986,8.228-8.774.266-3.406.864-2.9.906-5.948l.483-1.443c.553-4.62.091-6.108,3.276-5.414l.776.069a17.671,17.671,0,0,0,7.216-1.214c3.88-1.8,6.181-4.807,2.355-4.016Z" transform="translate(-1.469 -0.95)" fill="#336791"/>
    <g id="Group_83" data-name="Group 83">
      <g id="Group_81" data-name="Group 81">
        <path id="Path_761" data-name="Path 761" d="M35.683,47.622c-.242,8.593.06,17.247.9,19.324s2.642,6.19,8.835,4.867c5.172-1.108,7.056-3.255,7.872-7.992L55.2,48.673M28.261,4.544S.229-6.918,1.534,19.136c.278,5.544,7.941,41.97,17.09,30.949,3.339-4.025,6.359-7.174,6.359-7.174M43.4,2.451c-.966.3,15.592-6.054,25.007,5.972,3.321,4.248-.528,21.61-9.747,35.288" transform="translate(-1.489 -1.039)" fill="none" stroke="#fff" stroke-linecap="round" stroke-linejoin="round" stroke-width="0.716"/>
        <path id="Path_762" data-name="Path 762" d="M45.538,43.159s.6,2.959,9.36,1.153c3.826-.791,1.522,2.216-2.355,4.016-3.182,1.48-10.32,1.857-10.438-.181-.3-5.269,3.756-3.669,3.463-4.988-.266-1.19-2.083-2.355-3.279-5.266-1.048-2.536-14.372-22.012,3.7-19.122.664-.136-4.71-17.211-21.619-17.458S7.991,22.1,7.991,22.1" transform="translate(11.637 -0.493)" fill="none" stroke="#fff" stroke-linecap="round" stroke-linejoin="bevel" stroke-width="0.716"/>
      </g>
      <g id="Group_82" data-name="Group 82" transform="translate(19.345 18.358)">
        <path id="Path_763" data-name="Path 763" d="M17.269,16.413c-2.355,2.633-1.661,3.095-6.371,4.064-4.765.981-1.963,2.73-.139,3.189,2.216.556,7.343,1.341,10.81-3.512,1.057-1.48-.006-3.835-1.455-4.433a2.139,2.139,0,0,0-2.838.694Z" transform="translate(-7.152 9.7)" fill="none" stroke="#fff" stroke-linejoin="round" stroke-width="0.716"/>
        <path id="Path_764" data-name="Path 764" d="M17.86,33.188c-.242-1.549.507-3.388,1.307-5.544,1.2-3.231,3.974-6.462,1.757-16.719C19.273,3.286,8.182,9.334,8.182,10.37A51.655,51.655,0,0,1,8,20.53c-.9,6.407,4.076,11.824,9.8,11.272" transform="translate(-7.896 -7.12)" fill="none" stroke="#fff" stroke-linecap="round" stroke-linejoin="round" stroke-width="0.716"/>
      </g>
    </g>
    <g id="Group_84" data-name="Group 84" transform="translate(26.667 20.283)">
      <path id="Path_765" data-name="Path 765" d="M10.324,8.446c-.051.353.649,1.3,1.558,1.425a1.678,1.678,0,0,0,1.736-.966c.051-.356-.649-.743-1.558-.87S10.369,8.1,10.324,8.446Z" transform="translate(-10.321 -7.274)" fill="#fff" stroke="#fff" stroke-width="0.239"/>
      <path id="Path_766" data-name="Path 766" d="M21.691,8.207c.048.353-.649,1.3-1.558,1.425A1.672,1.672,0,0,1,18.4,8.666c-.045-.356.649-.743,1.558-.87S21.645,7.857,21.691,8.207Z" transform="translate(5.982 -7.757)" fill="#fff" stroke="#fff" stroke-width="0.119"/>
    </g>
    <path id="Path_767" data-name="Path 767" d="M21.86,7.1c.151,2.778-.6,4.665-.694,7.621-.139,4.294,2.047,9.209-1.247,14.131" transform="translate(35.728 11.189)" fill="none" stroke="#fff" stroke-linecap="round" stroke-linejoin="round" stroke-width="0.716"/>
  </g>
</svg>
