<svg id="Group_91" data-name="Group 91" xmlns="http://www.w3.org/2000/svg" width="97.716" height="96.939" viewBox="0 0 97.716 96.939">
  <ellipse id="download_1_" data-name="download (1)" cx="48.858" cy="48.47" rx="48.858" ry="48.47" fill="#fff"/>
  <g id="react-2" transform="translate(6 10)">
    <path id="Path_771" data-name="Path 771" d="M262.3,116.569c0-5.737-7.184-11.174-18.2-14.545,2.542-11.227,1.412-20.158-3.566-23.018a7.739,7.739,0,0,0-3.954-.989v3.936a4.088,4.088,0,0,1,2.012.459c2.4,1.377,3.442,6.619,2.63,13.362-.194,1.659-.512,3.407-.9,5.19a85.545,85.545,0,0,0-11.209-1.924,86.108,86.108,0,0,0-7.343-8.826c5.755-5.348,11.156-8.279,14.828-8.279V78c-4.854,0-11.209,3.46-17.634,9.461-6.425-5.966-12.78-9.391-17.634-9.391v3.936c3.654,0,9.073,2.913,14.828,8.226a83.373,83.373,0,0,0-7.29,8.808,82.431,82.431,0,0,0-11.227,1.942c-.406-1.765-.706-3.477-.918-5.119-.83-6.743.194-11.986,2.577-13.38a3.928,3.928,0,0,1,2.03-.459V78.088a7.871,7.871,0,0,0-3.989.988c-4.96,2.86-6.072,11.774-3.513,22.965-10.979,3.389-18.128,8.808-18.128,14.527,0,5.737,7.184,11.174,18.2,14.545-2.542,11.227-1.412,20.158,3.566,23.018a7.76,7.76,0,0,0,3.972.989c4.854,0,11.209-3.46,17.634-9.461,6.425,5.966,12.78,9.391,17.634,9.391a7.871,7.871,0,0,0,3.989-.989c4.96-2.86,6.072-11.774,3.513-22.965,10.944-3.371,18.093-8.808,18.093-14.527ZM239.317,104.8c-.653,2.277-1.465,4.625-2.383,6.972-.724-1.412-1.483-2.824-2.312-4.236-.812-1.412-1.677-2.789-2.542-4.131,2.507.371,4.925.83,7.237,1.394Zm-8.085,18.8c-1.377,2.383-2.789,4.642-4.254,6.743-2.63.229-5.3.353-7.979.353-2.665,0-5.331-.124-7.943-.335q-2.2-3.151-4.272-6.708-2.012-3.469-3.672-7.025c1.094-2.365,2.33-4.731,3.654-7.043,1.377-2.383,2.789-4.642,4.254-6.743,2.63-.229,5.3-.353,7.979-.353,2.665,0,5.331.124,7.943.335q2.2,3.151,4.272,6.708,2.012,3.469,3.672,7.025C233.775,118.917,232.557,121.282,231.233,123.594Zm5.7-2.295c.953,2.365,1.765,4.731,2.436,7.025-2.312.565-4.748,1.041-7.273,1.412.865-1.359,1.73-2.754,2.542-4.183.812-1.412,1.571-2.842,2.295-4.254Zm-17.9,18.834a72.772,72.772,0,0,1-4.907-5.649c1.589.071,3.213.124,4.854.124,1.659,0,3.3-.035,4.907-.124A68.9,68.9,0,0,1,219.035,140.134Zm-13.133-10.4c-2.507-.371-4.925-.83-7.237-1.394.653-2.277,1.465-4.625,2.383-6.972.724,1.412,1.483,2.824,2.312,4.236S205.037,128.4,205.9,129.737ZM218.947,93a72.774,72.774,0,0,1,4.907,5.649c-1.589-.071-3.213-.124-4.854-.124-1.659,0-3.3.035-4.907.124A68.9,68.9,0,0,1,218.947,93Zm-13.062,10.4c-.865,1.359-1.73,2.754-2.542,4.183-.812,1.412-1.571,2.824-2.295,4.236-.953-2.365-1.765-4.731-2.436-7.025C200.925,104.248,203.361,103.772,205.885,103.4ZM189.91,125.5c-6.249-2.665-10.291-6.16-10.291-8.932s4.042-6.284,10.291-8.932c1.518-.653,3.177-1.236,4.89-1.783a84.777,84.777,0,0,0,3.972,10.75,83.581,83.581,0,0,0-3.919,10.7C193.1,126.754,191.446,126.154,189.91,125.5Zm9.5,25.224c-2.4-1.377-3.442-6.619-2.63-13.362.194-1.659.512-3.407.9-5.19a85.547,85.547,0,0,0,11.209,1.924,86.1,86.1,0,0,0,7.343,8.826c-5.754,5.348-11.156,8.279-14.828,8.279A4.213,4.213,0,0,1,199.407,150.725Zm41.87-13.451c.83,6.743-.194,11.986-2.577,13.38a3.929,3.929,0,0,1-2.03.459c-3.654,0-9.073-2.913-14.828-8.226a83.37,83.37,0,0,0,7.29-8.808,82.429,82.429,0,0,0,11.227-1.942A49.416,49.416,0,0,1,241.277,137.275Zm6.8-11.774c-1.518.653-3.177,1.236-4.89,1.783a84.78,84.78,0,0,0-3.972-10.75,83.581,83.581,0,0,0,3.919-10.7c1.748.547,3.407,1.147,4.96,1.8,6.249,2.665,10.291,6.16,10.291,8.932-.018,2.771-4.06,6.284-10.309,8.932Z" transform="translate(-175.7 -78)" fill="#61dafb"/>
    <circle id="Ellipse_59" data-name="Ellipse 59" cx="8.067" cy="8.067" r="8.067" transform="translate(35.215 30.502)" fill="#61dafb"/>
  </g>
</svg>
