<svg id="Group_92" data-name="Group 92" xmlns="http://www.w3.org/2000/svg" width="97.716" height="96.939" viewBox="0 0 97.716 96.939">
  <ellipse id="download_1_" data-name="download (1)" cx="48.858" cy="48.47" rx="48.858" ry="48.47" fill="#fff"/>
  <path id="sass-1" d="M69.262,34.929a16.6,16.6,0,0,0-7.3,1.7,15.024,15.024,0,0,1-1.637-3.778,10.449,10.449,0,0,1-.142-3.18,25.48,25.48,0,0,1,.96-3.432c-.016-.142-.173-.834-1.795-.85s-3.022.315-3.18.74a18.079,18.079,0,0,0-.677,2.408c-.283,1.48-3.243,6.722-4.927,9.477a9.668,9.668,0,0,1-1.118-2.771,10.448,10.448,0,0,1-.142-3.18,25.493,25.493,0,0,1,.96-3.432c-.016-.142-.173-.834-1.794-.85s-3.022.315-3.18.74-.331,1.433-.677,2.408c-.331.976-4.266,9.728-5.289,12.011-.519,1.165-.976,2.094-1.307,2.723s-.016.047-.047.11c-.283.535-.441.834-.441.834v.016c-.22.394-.457.771-.567.771a5.25,5.25,0,0,1,.031-2.5c.582-3.038,2-7.776,1.984-7.95,0-.079.267-.913-.913-1.338a1.435,1.435,0,0,0-1.653.283c-.094,0-.173.252-.173.252s1.275-5.336-2.44-5.336c-2.33,0-5.541,2.534-7.131,4.848-1.007.551-3.148,1.716-5.415,2.959-.866.472-1.763.976-2.613,1.433l-.173-.189c-4.5-4.8-12.83-8.2-12.483-14.656.126-2.346.945-8.532,15.994-16.025,12.326-6.139,22.2-4.455,23.912-.708,2.44,5.352-5.274,15.3-18.087,16.734-4.88.551-7.446-1.338-8.091-2.046-.677-.74-.771-.771-1.023-.63-.409.22-.157.882,0,1.275a7.6,7.6,0,0,0,4.628,3.636c2.345.771,8.076,1.2,15-1.48,7.761-3.007,13.821-11.35,12.043-18.323C48.545.533,36.77-1.8,25.641,2.155,19.013,4.516,11.835,8.2,6.672,13.032.532,18.762-.444,23.768-.034,25.846,1.4,33.261,11.615,38.093,15.707,41.667c-.2.11-.394.22-.567.315-2.046,1.007-9.839,5.085-11.791,9.4-2.2,4.88.346,8.391,2.046,8.863,5.258,1.464,10.642-1.165,13.554-5.494,2.9-4.329,2.55-9.949,1.212-12.515l-.047-.094,1.606-.945c1.039-.614,2.062-1.181,2.959-1.669a19.6,19.6,0,0,0-1.055,5.352c-.22,2.771.913,6.36,2.409,7.776a2.665,2.665,0,0,0,1.936.63c1.732,0,2.519-1.433,3.385-3.148,1.07-2.094,2.015-4.518,2.015-4.518s-1.181,6.564,2.046,6.564c1.181,0,2.361-1.527,2.9-2.314v.016s.031-.047.094-.157.129-.2.189-.3V49.4c.472-.819,1.527-2.692,3.1-5.793,2.031-4,3.983-9,3.983-9a28.732,28.732,0,0,0,.771,3.243,31.031,31.031,0,0,0,1.684,3.778c-.472.661-.756,1.039-.756,1.039l.016.016c-.378.5-.8,1.039-1.243,1.574a45.75,45.75,0,0,0-3.778,4.738,1.3,1.3,0,0,0,.346,1.732,3.151,3.151,0,0,0,1.983.315,8.836,8.836,0,0,0,2.959-.677,10.25,10.25,0,0,0,2.55-1.338A5.677,5.677,0,0,0,52.654,44a10.1,10.1,0,0,0-.929-3.542c.142-.2.284-.409.425-.63a66.45,66.45,0,0,0,4.408-7.635,28.732,28.732,0,0,0,.771,3.243,22.735,22.735,0,0,0,1.433,3.243,14,14,0,0,0-4.3,5.557c-.929,2.676-.2,3.888,1.165,4.172a4.19,4.19,0,0,0,2.156-.441,9.773,9.773,0,0,0,2.724-1.4c1.574-1.165,3.085-2.786,3.007-4.974a9.536,9.536,0,0,0-.677-2.944,15.336,15.336,0,0,1,7.808-.9c7.005.819,8.39,5.195,8.123,7.021a4.7,4.7,0,0,1-2.22,3.148c-.488.3-.645.409-.6.63.063.331.283.315.708.252a5.449,5.449,0,0,0,3.81-4.864c.189-4.33-3.92-9.052-11.208-9.005ZM15.235,53.142c-2.314,2.534-5.573,3.495-6.958,2.676-1.5-.866-.913-4.6,1.936-7.288a37.04,37.04,0,0,1,5.462-4.077c.331-.2.834-.5,1.433-.866a1.68,1.68,0,0,1,.157-.094c.11-.063.236-.142.362-.22a10.041,10.041,0,0,1-2.393,9.87ZM32.158,41.635c-.8,1.968-2.5,7.021-3.526,6.737-.882-.236-1.417-4.061-.173-7.839a17.5,17.5,0,0,1,2.755-5.053c1.275-1.417,2.66-1.889,3.007-1.307C34.629,34.929,32.662,40.407,32.158,41.635ZM46.121,48.31c-.346.173-.661.3-.8.2-.11-.063.142-.3.142-.3s1.747-1.873,2.44-2.739c.394-.5.866-1.086,1.37-1.747v.189c0,2.267-2.172,3.778-3.148,4.392Zm10.767-2.456c-.252-.189-.22-.771.63-2.6a9.733,9.733,0,0,1,2.393-3.085,3.894,3.894,0,0,1,.236,1.354A4.429,4.429,0,0,1,56.888,45.854Z" transform="translate(11.115 18.025)" fill="#cf649a"/>
</svg>
