<svg id="Group_93" data-name="Group 93" xmlns="http://www.w3.org/2000/svg" width="97.716" height="96.939" viewBox="0 0 97.716 96.939">
  <ellipse id="download" cx="48.858" cy="48.47" rx="48.858" ry="48.47" transform="translate(0 0)" fill="#007acc"/>
  <path id="Path_774" data-name="Path 774" d="M1094.828,506.56a13.991,13.991,0,0,1,7.026,4.047,18.452,18.452,0,0,1,2.692,3.6c.035.14-4.849,3.422-7.81,5.26-.106.07-.536-.392-1.018-1.106a6.359,6.359,0,0,0-5.278-3.173c-3.4-.232-5.616,1.553-5.581,4.529a4.117,4.117,0,0,0,.481,2.106c.749,1.553,2.141,2.478,6.507,4.371,8.043,3.457,11.483,5.739,13.621,8.986a16.31,16.31,0,0,1,1.3,13.694c-1.783,4.672-6.205,7.845-12.427,8.9a34.443,34.443,0,0,1-8.558-.088,20.643,20.643,0,0,1-11.429-5.955c-1.035-1.14-3.049-4.119-2.924-4.335a8.672,8.672,0,0,1,1.035-.66l4.174-2.4,3.229-1.873.678,1a15.06,15.06,0,0,0,4.261,4.083c3.584,1.89,8.505,1.622,10.929-.553a4.884,4.884,0,0,0,.625-6.222c-.874-1.246-2.658-2.3-7.723-4.493-5.8-2.5-8.292-4.048-10.574-6.51a14.811,14.811,0,0,1-3.085-5.617,22.452,22.452,0,0,1-.2-7.168c1.193-5.616,5.42-9.5,11.517-10.662a28.478,28.478,0,0,1,8.523.249Z" transform="translate(-1018.168 -483.121)" fill="#fff"/>
  <path id="Path_775" data-name="Path 775" d="M1068.458,511.246l.035,4.6h-14.621v41.544h-10.341V515.845H1028.91v-4.511l.123-4.633c.053-.07,8.951-.106,19.739-.088l19.631.053Z" transform="translate(-1018.168 -483.121)" fill="#fff"/>
</svg>
